<svg width="30" height="26" viewBox="0 0 30 26" fill="none" xmlns="http://www.w3.org/2000/svg">
  <!-- Base monitor/screen shape -->
  <path d="M3 1C1.89543 1 1 1.89543 1 3V18C1 19.1046 1.89543 20 3 20H27C28.1046 20 29 19.1046 29 18V3C29 1.89543 28.1046 1 27 1H3Z" fill="url(#paint0_linear_screen)"/>
  
  <!-- Screen inner area -->
  <path d="M3 3H27V16H3V3Z" fill="#101630"/>
  
  <!-- Stand -->
  <path d="M11 20H19V22C19 22.5523 18.5523 23 18 23H12C11.4477 23 11 22.5523 11 22V20Z" fill="url(#paint1_linear_stand)"/>
  <path d="M9 24H21C21.5523 24 22 24.4477 22 25C22 25.5523 21.5523 26 21 26H9C8.44772 26 8 25.5523 8 25C8 24.4477 8.44772 24 9 24Z" fill="url(#paint2_linear_base)"/>
  
  <!-- 3D Objects on screen -->
  <!-- Cube -->
  <path d="M7 7L10 5V10L7 12V7Z" fill="#4D75B3" stroke="#6A9DFF" stroke-width="0.3"/>
  <path d="M10 5L13 7V12L10 10V5Z" fill="#3D65A3" stroke="#6A9DFF" stroke-width="0.3"/>
  <path d="M7 12L10 10L13 12L10 14L7 12Z" fill="#5D85C3" stroke="#6A9DFF" stroke-width="0.3"/>
  
  <!-- Sphere with basic lighting -->
  <circle cx="19" cy="9" r="4" fill="url(#paint3_radial_sphere)"/>
  <path d="M18 6.5C18.8284 5.67157 20.1716 5.67157 21 6.5C21.8284 7.32843 21.8284 8.67157 21 9.5C20.1716 10.3284 18.8284 10.3284 18 9.5C17.1716 8.67157 17.1716 7.32843 18 6.5Z" fill="#FFFFFF" fill-opacity="0.4"/>
  
  <!-- Wireframe effect -->
  <path d="M6 15L10 13M10 13L14 15M10 13V9M10 9L6 7M10 9L14 7M18 5L22 7M22 7L26 5M22 7V11M22 11L18 13M22 11L26 13M6 7L10 5L14 7M6 15L10 17L14 15M18 5L22 3L26 5M18 13L22 15L26 13" 
        stroke="#67E8F9" stroke-width="0.3" stroke-opacity="0.7"/>
  
  <!-- Reflection/glare on screen -->
  <path d="M3 3L5 5L3 7V3Z" fill="url(#paint4_linear_glare)" fill-opacity="0.2"/>
  
  <!-- Control buttons -->
  <circle cx="15" cy="18.5" r="0.7" fill="#67E8F9"/>
  <rect x="17" y="18.2" width="1.8" height="0.6" rx="0.3" fill="#67E8F9"/>
  <rect x="20" y="18.2" width="0.6" height="0.6" rx="0.3" fill="#67E8F9"/>
  <rect x="21" y="18.2" width="0.6" height="0.6" rx="0.3" fill="#67E8F9"/>
  
  <!-- Defs -->
  <defs>
    <!-- Screen gradient -->
    <linearGradient id="paint0_linear_screen" x1="15" y1="1" x2="15" y2="20" gradientUnits="userSpaceOnUse">
      <stop offset="0" stop-color="#3F4C6B"/>
      <stop offset="1" stop-color="#2C3E50"/>
    </linearGradient>
    
    <!-- Stand gradient -->
    <linearGradient id="paint1_linear_stand" x1="15" y1="20" x2="15" y2="23" gradientUnits="userSpaceOnUse">
      <stop offset="0" stop-color="#3F4C6B"/>
      <stop offset="1" stop-color="#2C3E50"/>
    </linearGradient>
    
    <!-- Base gradient -->
    <linearGradient id="paint2_linear_base" x1="15" y1="24" x2="15" y2="26" gradientUnits="userSpaceOnUse">
      <stop offset="0" stop-color="#3F4C6B"/>
      <stop offset="1" stop-color="#2C3E50"/>
    </linearGradient>
    
    <!-- Sphere radial gradient -->
    <radialGradient id="paint3_radial_sphere" cx="0" cy="0" r="1" gradientUnits="userSpaceOnUse" 
                    gradientTransform="translate(18 7) rotate(45) scale(6)">
      <stop offset="0" stop-color="#67E8F9"/>
      <stop offset="1" stop-color="#0891B2"/>
    </radialGradient>
    
    <!-- Glare effect -->
    <linearGradient id="paint4_linear_glare" x1="3" y1="3" x2="5" y2="7" gradientUnits="userSpaceOnUse">
      <stop offset="0" stop-color="white"/>
      <stop offset="1" stop-color="white" stop-opacity="0"/>
    </linearGradient>
  </defs>
</svg>