<svg viewBox="0 0 300 400" width="200" height="267" xmlns="http://www.w3.org/2000/svg">
  <!-- Red Steam/Flame (Top Part) -->
  <path d="M150 20C120 60 90 90 110 130C130 170 190 180 180 240C170 190 120 180 100 140C80 100 110 60 150 20Z" fill="#E76F00"/>
  <path d="M190 40C170 80 170 110 190 140C210 170 240 190 230 240C220 200 190 180 170 150C150 120 160 80 190 40Z" fill="#E76F00"/>
  
  <!-- Blue Cup (Bottom Part) -->
  <path d="M100 280C140 270 220 270 260 280C270 290 220 300 180 300C140 300 80 290 100 280Z" fill="#5382A1"/>
  <path d="M110 320C150 310 210 310 250 320C260 330 210 340 180 340C150 340 100 330 110 320Z" fill="#5382A1"/>
  <path d="M120 360C160 350 200 350 240 360C250 370 210 380 180 380C150 380 110 370 120 360Z" fill="#5382A1"/>
  
  <!-- Cup Handle -->
  <path d="M240 260C280 250 300 270 290 290C280 310 260 320 220 320C240 310 270 300 270 290C270 280 260 270 240 260Z" fill="#5382A1"/>
</svg>