<svg xmlns="http://www.w3.org/2000/svg" viewBox="0 0 31 30" fill="none">
  <!-- Background shape -->
  <path d="M15.5 2C8.6 2 3 7.6 3 14.5S8.6 27 15.5 27 28 21.4 28 14.5 22.4 2 15.5 2z" fill="#006633" opacity="0.9"/>
  
  <!-- Circuit board pattern -->
  <path d="M7 10h17M7 20h17M10 7v16M20 7v16" stroke="#80D080" stroke-width="0.5" opacity="0.7"/>
  <path d="M7 15h17M15 7v16" stroke="#80D080" stroke-width="0.75"/>
  
  <!-- E-symbol -->
  <path d="M12 10h7M12 15h5M12 20h7" stroke="#ffffff" stroke-width="2" stroke-linecap="round"/>
  
  <!-- Recycling arrows -->
  <path d="M21.5 13.5l2-2.5 2 2.5M25.5 12.5v4M21.5 19l2 2.5 2-2.5" stroke="#ffffff" stroke-width="1.5" stroke-linecap="round" stroke-linejoin="round"/>
  <path d="M25 16.5a4 4 0 01-4 4" stroke="#ffffff" stroke-width="1.5" stroke-linecap="round"/>
  
  <!-- Computer/device icon -->
  <rect x="5.5" y="11" width="4" height="3" rx="0.5" stroke="#ffffff" stroke-width="1.2"/>
  <path d="M7.5 14v1M5 16h5" stroke="#ffffff" stroke-width="1.2" stroke-linecap="round"/>
  
  <!-- Battery icon -->
  <rect x="5.5" y="17.5" width="3" height="5" rx="0.5" stroke="#ffffff" stroke-width="1.2"/>
  <path d="M7 17v-1" stroke="#ffffff" stroke-width="1.2" stroke-linecap="round"/>
  
  <!-- Chip/circuit element -->
  <rect x="5.5" y="6.5" width="4" height="3" rx="0.5" stroke="#ffffff" stroke-width="1"/>
  <path d="M6.5 8h2M7.5 7v2" stroke="#ffffff" stroke-width="0.75"/>
</svg>